<svg xmlns="http://www.w3.org/2000/svg" xmlns:xlink="http://www.w3.org/1999/xlink" viewBox="0 0 370 160" enable-background="new 0 0 370 160"><g><g fill="#fff"><path d="M181.7 97.3c2 6.5 8.7 11.4 19 11.4 12.4 0 16.6-5.7 16.6-11.5 0-3.7-1.4-6.6-4.2-8.5-2.7-2-7.6-4.4-14.7-7.2-13.8-5.4-20.5-11.1-20.5-22 0-11.5 9.5-19.9 22.8-19.9 10.2 0 17.5 4.3 21.9 13l-9 4.6c-2.7-5-6.9-7.5-12.8-7.5-7 0-11.8 3.6-11.8 9.8 0 6.1 5.1 9.3 16.5 13.6 15.6 6 22.9 12.6 22.9 24.1 0 12-9.8 21.9-27.7 21.9-14.4 0-25.5-6.6-28.5-18.1l9.5-3.7zM236.1 117.3v-104.6h11.1v40.2c4.3-7.6 13.2-13.5 26.8-13.5 10.6 0 19.8 3.9 27.1 11.5 7.3 7.6 11.1 17.1 11.1 28.5 0 11.4-3.8 21-11.1 28.6s-16.5 11.4-27.1 11.4c-13.6 0-22.5-5.8-26.8-13.5v11.2h-11.1zm57.3-16.5c5.2-5.7 7.8-12.8 7.8-21.3s-2.5-15.6-7.8-21.1c-5.1-5.7-11.5-8.5-19.3-8.5-8.1 0-14.8 2.8-20.2 8.5-5.2 5.5-8 12.6-8 21.1 0 8.5 2.7 15.6 8 21.3 5.4 5.5 12.1 8.4 20.2 8.4 7.8 0 14.2-2.9 19.3-8.4zM320.9 52h-8.9v-10.3h8.8v-29h11.2v28.9h17.5v10.4h-17.5v44.1c0 9.6 3.1 13 10.5 13 2.8 0 5.1-.2 7-.5v9.6c-1.7.8-4.5 1.2-8.4 1.2-13.5 0-20.2-7.8-20.2-23.4v-44z"/></g><defs><circle id="a" cx="80" cy="80" r="75"/></defs><clipPath id="b"><use xlink:href="#a" overflow="visible"/></clipPath><g clip-path="url(#b)"><path fill="#15A9CE" d="M70.7 87.7h146.2c4.8 0 8.7-3.9 8.7-8.7 0-4.8-3.9-8.7-8.7-8.7h-146.2c-4.8 0-8.7 3.9-8.7 8.7 0 4.8 3.9 8.7 8.7 8.7z"/><path fill="#92D13D" d="M88.7 59.3h146.2c4.8 0 8.7-3.9 8.7-8.7 0-4.8-3.9-8.7-8.7-8.7h-146.2c-4.8 0-8.7 3.9-8.7 8.7 0 4.9 3.9 8.7 8.7 8.7z"/><path fill="#DE3423" d="M52.7 116h146.2c4.8 0 8.7-3.9 8.7-8.7 0-4.8-3.9-8.7-8.7-8.7h-146.2c-4.8 0-8.7 3.9-8.7 8.7 0 4.8 3.9 8.7 8.7 8.7z"/></g><path fill="#fff" d="M80 4.5c-41.6 0-75.5 33.9-75.5 75.5s33.9 75.5 75.5 75.5 75.5-33.9 75.5-75.5-33.8-75.5-75.5-75.5zm0 142c-36.7 0-66.5-29.8-66.5-66.5s29.9-66.5 66.5-66.5 66.5 29.8 66.5 66.5-29.8 66.5-66.5 66.5z"/></g></svg>