<svg xmlns="http://www.w3.org/2000/svg" xmlns:xlink="http://www.w3.org/1999/xlink" viewBox="0 0 154 154" enable-background="new 0 0 154 154"><g><circle fill="#0E3A51" cx="77" cy="77" r="75"/><defs><circle id="a" cx="77" cy="77" r="75"/></defs><clipPath id="b"><use xlink:href="#a" overflow="visible"/></clipPath><g clip-path="url(#b)"><path fill="#15A9CE" d="M67.7 84.7h146.2c4.8 0 8.7-3.9 8.7-8.7 0-4.8-3.9-8.7-8.7-8.7h-146.2c-4.8 0-8.7 3.9-8.7 8.7 0 4.8 3.9 8.7 8.7 8.7z"/><path fill="#92D13D" d="M85.7 56.3h146.2c4.8 0 8.7-3.9 8.7-8.7 0-4.8-3.9-8.7-8.7-8.7h-146.2c-4.8 0-8.7 3.9-8.7 8.7 0 4.9 3.9 8.7 8.7 8.7z"/><path fill="#DE3423" d="M49.7 113h146.2c4.8 0 8.7-3.9 8.7-8.7 0-4.8-3.9-8.7-8.7-8.7h-146.2c-4.8 0-8.7 3.9-8.7 8.7 0 4.8 3.9 8.7 8.7 8.7z"/></g></g></svg>