<svg xmlns="http://www.w3.org/2000/svg" viewBox="0 0 97.5 85.2" enable-background="new 0 0 97.5 85.2"><path stroke="#fff" stroke-width="4.282" stroke-linecap="round" stroke-miterlimit="10" d="M27 29.5h-16.3c-4.7 0-8.6 3.9-8.6 8.6v25.7c0 4.7 3.9 8.6 8.6 8.6h2.7c.8 0 1.5.7 1.5 1.5v7.8c0 1.3 1.6 2 2.5 1l9.5-9.5c.5-.5 1.2-.8 2-.8h20.2c4.7 0 8.6-3.9 8.6-8.6v-7.8" fill="none"/><path fill="#fff" d="M85 0h-40c-6.9 0-12.5 5.6-12.5 12.5v33.4c0 2.2 1.8 4.1 4.1 4.1h29.9c.7 0 1.3.3 1.8.7l10 10c1.6 1.6 4.3.5 4.3-1.8v-6.5c0-1.4 1.1-2.5 2.5-2.5 6.9 0 12.5-5.6 12.5-12.5v-25c-.1-6.8-5.8-12.4-12.6-12.4z"/></svg>