<svg xmlns="http://www.w3.org/2000/svg" viewBox="0 0 660 160" enable-background="new 0 0 660 160"><g><g fill="#fff"><path d="M197.9 40.7h-29.9v-17.7h80v17.7h-29.9v74.6h-20.3v-74.6zM236.6 143.5l16.5-35-25.5-55.9h20.4l6.5 15.6c2.8 6.8 5.5 13.4 8 19.9h.3c2.8-6.9 5.6-13.5 8.5-20.3l6.6-15.2h19.3l-40.8 90.8h-19.8zM319.9 143.5h-19.4v-90.9h19v3.2l.3.1c4.1-2.8 9.3-4.7 15.6-4.7 16.1 0 29.7 12.8 29.7 32.3 0 20.2-14.4 33.3-32.8 33.3-5.1 0-9.2-1-12.1-2.4l-.3.1v29zm9.9-42.4c10.1 0 15.7-7.3 15.7-16.6 0-9.4-5.6-17.1-15.2-17.1-4 0-7.7 1.4-10.5 3.4v27.8c2.5 1.3 6.1 2.5 10 2.5zM388.8 89.1c2.2 8.7 9.3 12.6 18.2 12.6 7 0 14.7-2.4 21.3-6.9v16.2c-6.1 3.8-15.6 5.7-23.9 5.7-20.7 0-35.6-12.9-35.6-32.5 0-20 15.6-33 32.9-33 15.4 0 30 10.2 30 31.3 0 2.2-.1 5-.4 6.6h-42.5zm25.2-12.2c-1.1-6.8-6.1-10.8-12.4-10.8-6 0-11.2 3.7-12.9 10.8h25.3zM436.9 94.6c8.7 5.1 18.8 7.3 24.8 7.3 5.4 0 8.5-1.4 8.5-4.8 0-4.8-7-4.3-16.5-6.8-11.9-2.9-18.9-7.9-18.9-18.2.1-13.3 11.9-20.8 27.4-20.8 7.5 0 16.8 1.5 24 5v16.7c-8.3-4.7-18-6.8-23.6-6.8-5.1 0-8.2 1.5-8.2 4.5 0 4.6 6.8 4.2 16.1 6.5 12 2.9 19.3 7.5 19.3 18.4-.1 13.8-12.1 21.3-28.2 21.3-7.5 0-17.2-1.5-24.8-5.2v-17.1zM531.7 111.6c-4.1 2.9-10.3 5.2-17.5 5.2-5.4 0-10.5-1.3-14.5-4.1-4.6-3.2-7.4-8.2-7.4-14.7 0-6.9 3.2-12.1 7.7-15.2 4.8-3.3 11.1-4.5 17.6-4.5 3.7 0 7.4.4 10.8 1.1v-2.4c0-3.1-1-5.4-2.4-6.6-1.8-1.7-5.1-2.7-9.7-2.7-7 0-13.4 2.3-18.4 5v-16.6c5.1-2.6 12.8-4.8 21.9-4.8 8.4 0 15.9 1.9 20.9 6 4.7 3.8 7 9.4 7 17.4v21.3c0 2.9 1.1 5 3.8 5 1 0 2.2-.3 3.2-.8v14.5c-2.2 1.1-5.6 1.9-9.3 1.9-5.1 0-10.1-1.4-13.5-5h-.2zm-3.3-20.8c-2-.6-4.8-.9-6.9-.9-5 0-10 1.5-10 6.4 0 4.1 3.6 6.3 8 6.3 3.3 0 6.5-1.1 8.8-2.6v-9.2zM561.5 68.7h-8.9v-16.1h8.9v-9.3c0-8.8 1.8-16.3 6.6-20.9 4.5-4.3 11.5-5.9 17.7-5.9 3.6 0 7.3.5 10.7 1.8v15.7c-2.4-.6-6.3-1.1-8.4-1.1-6 0-7.3 3.8-7.3 9.2v10.6h14.5v16.1h-14.5v46.7h-19.4v-46.8zM614.5 89.1c2.2 8.7 9.3 12.6 18.2 12.6 7 0 14.7-2.4 21.3-6.9v16.2c-6.1 3.8-15.6 5.7-23.9 5.7-20.7 0-35.6-12.9-35.6-32.5 0-20 15.6-33 32.9-33 15.4 0 30 10.2 30 31.3 0 2.2-.1 5-.4 6.6h-42.5zm25.1-12.2c-1.1-6.8-6.1-10.8-12.4-10.8-6 0-11.2 3.7-12.9 10.8h25.3z"/></g><path fill="#fff" d="M53.7 116c-4.8 0-8.7-4.6-8.7-9.4v-.2c0-4.8 3.9-8.4 8.7-8.4h100c.9-3 1.6-7 2-11h-84c-4.8 0-8.7-3.7-8.7-8.5s3.9-8.5 8.7-8.5h83.7c-.5-4-1.2-8-2.3-11h-63.4c-4.8 0-8.7-3.7-8.7-8.5s3.9-8.5 8.7-8.5h56c-13.1-23-37.2-37.5-64.7-37.5-41.4 0-75 33.3-75 74.7s33.6 75.4 75 75.4c28.4 0 53.1-15.6 65.8-38.6h-93.1z"/></g></svg>